<svg width="512" height="512" viewBox="0 0 512 512" fill="none" xmlns="http://www.w3.org/2000/svg">
<path d="M488 327.671H451.275C435.27 312.497 414.055 304.039 392 304.039C369.945 304.039 348.73 312.497 332.725 327.671H256C248.433 327.681 241.114 330.367 235.337 335.255C229.561 340.142 225.7 346.916 224.438 354.377L154.717 331.132C149.838 329.506 144.643 329.063 139.56 329.839C134.476 330.615 129.65 332.587 125.478 335.594C121.306 338.601 117.909 342.556 115.566 347.134C113.222 351.711 112 356.78 112 361.922V362.447C111.975 367.929 113.34 373.328 115.969 378.139C118.597 382.95 122.403 387.016 127.03 389.956L265.9 478.324C274.974 484.085 285.14 487.914 295.76 489.57C306.381 491.227 317.229 490.675 327.627 487.951L449.035 456H488C490.122 456 492.156 455.157 493.657 453.657C495.157 452.157 496 450.122 496 448V335.671C496 333.549 495.157 331.515 493.657 330.014C492.156 328.514 490.122 327.671 488 327.671ZM480 440H448C447.313 440 446.628 440.089 445.964 440.264L323.55 472.479C315.284 474.642 306.662 475.078 298.22 473.761C289.779 472.445 281.699 469.403 274.485 464.826L135.62 376.458C133.269 374.957 131.337 372.885 130.005 370.434C128.672 367.984 127.982 365.236 128 362.447V361.922C128.005 357.567 129.732 353.391 132.805 350.305C135.877 347.219 140.045 345.474 144.4 345.449C146.187 345.451 147.961 345.742 149.655 346.311L226.425 371.911C228.842 377.764 232.944 382.767 238.21 386.285C243.475 389.804 249.667 391.678 256 391.671H336C338.122 391.671 340.156 390.828 341.657 389.328C343.157 387.828 344 385.793 344 383.671C344 381.549 343.157 379.515 341.657 378.014C340.156 376.514 338.122 375.671 336 375.671H256C252.444 375.676 248.988 374.495 246.179 372.315C243.37 370.134 241.369 367.079 240.493 363.633V363.613C239.895 361.251 239.843 358.785 240.343 356.4C240.842 354.016 241.879 351.777 243.374 349.854C244.87 347.93 246.784 346.374 248.972 345.303C251.16 344.231 253.564 343.673 256 343.671H336C337.05 343.671 338.091 343.464 339.061 343.062C340.032 342.66 340.914 342.071 341.657 341.328L342.467 340.518C355.613 327.4 373.427 320.033 391.999 320.033C410.571 320.033 428.384 327.4 441.531 340.518L442.341 341.328C443.084 342.071 443.966 342.661 444.937 343.063C445.908 343.465 446.949 343.671 448 343.671H480V440Z" fill="white"/>
<path d="M149.539 229.176C149.666 229.21 149.794 229.241 149.924 229.269C155.189 230.401 160.56 230.971 165.946 230.969C166.315 230.969 166.684 230.958 167.052 230.953C169.75 236.314 174.098 240.668 179.455 243.374C184.812 246.08 190.897 246.995 196.813 245.985L206.279 244.375C211.82 248.264 218.672 249.807 225.345 248.668L244.483 245.413C246.118 248.364 248.159 251.072 250.545 253.458L308.345 311.258C309.088 312.001 309.97 312.59 310.94 312.992C311.911 313.394 312.951 313.601 314.002 313.601C315.053 313.601 316.093 313.394 317.064 312.992C318.034 312.59 318.916 312.001 319.659 311.258L377.459 253.458C384.211 246.706 388.004 237.549 388.004 228.001C388.004 218.453 384.211 209.296 377.459 202.544C370.707 195.792 361.55 191.999 352.002 191.999C342.454 191.999 333.297 195.792 326.545 202.544L314 215.087L310.617 211.704C316.334 206.718 320.172 199.926 321.493 192.455C322.813 184.985 321.537 177.289 317.875 170.645C318.081 170.166 318.24 169.669 318.349 169.159L321.672 153.726C323.093 147.047 322.947 140.13 321.247 133.517C319.547 126.904 316.338 120.775 311.872 115.61L282.249 81.51C278.032 76.643 272.795 72.7638 266.911 70.1474C261.027 67.5311 254.639 66.2418 248.2 66.371L127.3 68.671L27.569 18.956C26.3493 18.348 24.9945 18.0616 23.6331 18.1241C22.2716 18.1867 20.9488 18.5959 19.7899 19.3131C18.631 20.0304 17.6746 21.0317 17.0114 22.2223C16.3481 23.4128 16 24.7531 16 26.116V146.116C16.0001 147.655 16.4441 149.161 17.2788 150.454C18.1135 151.747 19.3035 152.772 20.706 153.406L82.946 181.525L94.965 196.268C108.536 212.87 127.335 224.38 148.292 228.918C148.708 229.007 149.123 229.094 149.539 229.176ZM185.539 228.432C188.881 227.55 192.158 226.442 195.35 225.116C195.472 226.722 195.744 228.313 196.162 229.868L194.136 230.213C191.147 230.724 188.075 230.088 185.534 228.432H185.539ZM222.668 232.896C220.794 233.215 218.868 232.977 217.128 232.211C215.388 231.446 213.912 230.186 212.881 228.589C212.056 227.307 211.533 225.855 211.35 224.341C211.168 222.828 211.331 221.292 211.827 219.851C212.349 218.221 213.333 216.777 214.66 215.696L222.333 211.868L242.699 214.353C240.92 218.683 240.004 223.319 240 228C240 228.648 240.02 229.294 240.054 229.937L222.668 232.896ZM308.348 232.058C309.091 232.801 309.973 233.39 310.943 233.792C311.914 234.194 312.954 234.401 314.005 234.401C315.056 234.401 316.096 234.194 317.067 233.792C318.037 233.39 318.919 232.801 319.662 232.058L337.862 213.858C339.719 212.001 341.924 210.527 344.351 209.522C346.778 208.517 349.379 208 352.005 208C354.632 208 357.233 208.517 359.66 209.522C362.087 210.527 364.292 212.001 366.149 213.858C368.006 215.715 369.48 217.92 370.485 220.347C371.49 222.774 372.007 225.375 372.007 228.001C372.007 230.628 371.49 233.229 370.485 235.656C369.48 238.083 368.006 240.288 366.149 242.145L314 294.286L261.859 242.146C258.517 238.807 256.466 234.391 256.07 229.682C255.675 224.974 256.96 220.278 259.699 216.428L284.911 219.504C288.409 219.931 291.953 219.802 295.411 219.124L308.348 232.058ZM107.371 186.158L94.162 169.958C93.3796 168.997 92.3843 168.232 91.255 167.723L32 140.952V39.043L121.918 83.868C123.077 84.4312 124.351 84.7187 125.64 84.708L248.5 82.369C248.68 82.369 248.858 82.363 249.037 82.363C253.045 82.3584 257.008 83.2167 260.655 84.8796C264.302 86.5425 267.548 88.9709 270.173 92L299.8 126.1C302.642 129.387 304.684 133.287 305.765 137.495C306.847 141.704 306.939 146.105 306.035 150.355L304.508 157.45C301.794 156.009 298.892 154.951 295.887 154.308L281.31 151.169L282.994 143.349C283.441 141.275 283.045 139.108 281.894 137.325C280.743 135.543 278.931 134.291 276.857 133.844C274.783 133.397 272.616 133.793 270.833 134.944C269.051 136.095 267.799 137.907 267.352 139.981L265.668 147.802L254.213 145.335L245.194 122.487C244.415 120.513 242.884 118.93 240.937 118.085C238.991 117.241 236.789 117.204 234.815 117.983C232.841 118.762 231.258 120.293 230.413 122.24C229.569 124.186 229.532 126.388 230.311 128.362L235.411 141.288L218.611 137.671C217.578 137.434 216.509 137.404 215.464 137.584C214.42 137.764 213.422 138.149 212.527 138.718C211.633 139.287 210.861 140.027 210.256 140.897C209.65 141.767 209.223 142.748 209 143.784C208.777 144.82 208.762 145.89 208.956 146.932C209.15 147.973 209.549 148.966 210.13 149.853C210.71 150.739 211.462 151.501 212.339 152.095C213.217 152.689 214.204 153.102 215.243 153.311L292.52 169.95C296.821 170.874 300.6 173.421 303.07 177.062C305.541 180.702 306.512 185.155 305.782 189.493C305.051 193.831 302.676 197.721 299.15 200.352C295.624 202.983 291.22 204.153 286.853 203.618L221.883 195.691C220.326 195.502 218.748 195.774 217.344 196.474L211.187 199.544C211.168 199.551 211.148 199.555 211.129 199.562C209.445 200.171 207.838 200.976 206.343 201.962L192.981 208.627C180.858 214.654 167.066 216.451 153.803 213.732C153.576 213.668 153.346 213.613 153.113 213.569C152.624 213.476 152.135 213.376 151.656 213.269C134.251 209.501 118.638 199.944 107.366 186.158H107.371Z" fill="white"/>
</svg>
