<svg width="512" height="512" viewBox="0 0 512 512" fill="none" xmlns="http://www.w3.org/2000/svg">
<g clip-path="url(#clip0_97_15)">
<path d="M512 348.29C512 280.303 456.751 224.44 388.15 224.44C346.652 224.44 309.858 244.958 287.373 276.379H131.195V246.365C131.195 236.762 123.383 228.95 113.78 228.95H78.306C68.703 228.95 60.891 236.762 60.891 246.365V276.379H52.357C31.725 276.379 14.94 259.594 14.94 238.962V183.115C14.94 162.483 31.726 145.698 52.357 145.698H406.655C427.287 145.698 444.073 162.483 444.073 183.115V216.922C444.073 221.048 447.417 224.392 451.543 224.392C455.669 224.392 459.013 221.048 459.013 216.922V183.115C459.013 154.246 435.525 130.758 406.655 130.758H329.121V98.3561C329.121 66.1021 302.88 39.8611 270.626 39.8611H188.387C156.132 39.8611 129.892 66.1021 129.892 98.3561V130.759H52.357C23.488 130.758 0 154.246 0 183.115V404.644C0 433.514 23.488 457.002 52.357 457.002H291.109C295.235 457.002 298.579 453.658 298.579 449.532C298.579 445.406 295.235 442.062 291.109 442.062H52.357C31.725 442.062 14.94 425.276 14.94 404.644V275.534C24.452 285.264 37.708 291.319 52.357 291.319H60.891V298.912C60.891 318.294 76.66 334.063 96.043 334.063C115.426 334.063 131.195 318.294 131.195 298.912V291.319H278.207C269.328 308.384 264.301 327.76 264.301 348.29C264.301 416.294 319.567 472.14 388.151 472.14C456.676 472.14 512 416.344 512 348.29ZM284.134 130.758H174.879V98.3561C174.879 90.9071 180.939 84.8481 188.387 84.8481H270.626C278.075 84.8481 284.134 90.9081 284.134 98.3561V130.758ZM144.832 98.3561C144.832 74.3391 164.371 54.8011 188.387 54.8011H270.626C294.643 54.8011 314.181 74.3401 314.181 98.3561V130.759H299.074V98.3561C299.074 82.6701 286.312 69.9081 270.626 69.9081H188.387C172.701 69.9081 159.939 82.6701 159.939 98.3561V130.759H144.832V98.3561ZM78.306 243.89H113.78C115.145 243.89 116.255 245.001 116.255 246.365V257.817H75.831V246.365C75.831 245 76.942 243.89 78.306 243.89ZM116.255 298.912C116.255 310.057 107.188 319.123 96.043 319.123C84.898 319.123 75.831 310.057 75.831 298.912V272.756H116.254L116.255 298.912ZM485.693 396.694C476.168 393.996 464.264 391.771 450.707 390.102C455.692 363.335 455.701 333.293 450.707 306.477C464.264 304.808 476.168 302.583 485.693 299.885C492.963 314.475 497.061 330.911 497.061 348.289C497.06 365.668 492.962 382.104 485.693 396.694ZM432.265 293.315C420.759 294.256 408.39 294.833 395.62 294.996V240.655C414.736 247.114 426.73 273.908 432.265 293.315ZM380.68 240.61V294.996C367.916 294.833 355.554 294.257 344.052 293.317C351.927 265.61 365.436 245.618 380.68 240.61ZM344.026 403.266C355.535 402.325 367.907 401.747 380.681 401.585V455.959C365.447 450.973 351.907 431.089 344.026 403.266ZM395.62 455.925V401.584C408.39 401.747 420.759 402.324 432.265 403.265C426.732 422.665 414.739 449.465 395.62 455.925ZM395.62 386.643V309.938C409.72 309.767 423.25 309.114 435.763 308.032C440.735 333.73 440.775 362.645 435.763 388.549C423.25 387.467 409.72 386.813 395.62 386.643ZM477.802 286.528C469.348 288.648 459.013 290.431 447.393 291.808C442.459 273.422 435.154 257.798 426.18 246.236C447.233 254.107 465.216 268.315 477.802 286.528ZM350.023 246.273C341.102 257.781 333.821 273.351 328.895 291.807C317.279 290.429 306.948 288.647 298.498 286.528C311.065 268.343 329.012 254.152 350.023 246.273ZM290.608 299.887C300.134 302.585 312.039 304.81 325.599 306.479C324.021 314.996 322.906 323.983 322.319 333.357C322.061 337.474 325.19 341.022 329.307 341.279C333.416 341.533 336.971 338.409 337.23 334.29C337.803 325.146 338.938 316.343 340.552 308.033C353.061 309.114 366.586 309.767 380.68 309.938V386.643C366.585 386.814 353.061 387.467 340.551 388.548C339.288 382.02 338.308 375.19 337.672 368.106C337.303 363.997 333.671 360.954 329.564 361.333C325.455 361.702 322.423 365.332 322.791 369.44C323.425 376.5 324.385 383.409 325.642 390.097C312.064 391.766 300.143 393.993 290.607 396.695C283.337 382.105 279.239 365.669 279.239 348.291C279.241 330.912 283.339 314.476 290.608 299.887ZM298.499 410.052C306.971 407.927 317.331 406.142 328.981 404.763C333.247 420.63 339.998 437.298 350.113 450.341C329.063 442.469 311.083 428.263 298.499 410.052ZM426.18 450.344C435.154 438.782 442.459 423.158 447.393 404.772C459.013 406.15 469.348 407.932 477.802 410.052C465.216 428.265 447.233 442.473 426.18 450.344Z" fill="white"/>
</g>
<defs>
<clipPath id="clip0_97_15">
<rect width="512" height="512" fill="white"/>
</clipPath>
</defs>
</svg>
